<svg width="889" height="118" viewBox="0 0 889 118" fill="none" xmlns="http://www.w3.org/2000/svg">
<g clip-path="url(#clip0_5_7269)">
<path d="M46.7356 87.6331L47.0243 89.1173C47.7197 92.0726 48.2445 94.266 47.1292 96.1443C45.8828 98.2458 44.3739 99.7562 45.1743 101.779C45.5416 102.725 47.7459 103.421 49.3729 103.106C50.2913 102.922 51.892 102.252 52.3119 99.7168C53.5715 92.1251 47.9296 88.3949 47.8771 88.3555L46.7487 87.6331H46.7356Z" fill="white"/>
<path d="M1.86313 29.789V105.667C1.86313 107.926 1.74504 110.198 1.54823 112.444H20.1533C20.7043 109.765 21.3341 107.532 21.7671 106.77C22.2132 105.982 22.7249 105.076 22.7774 104.695C23.9714 94.0427 28.6292 82.0378 36.3834 79.2402C37.6824 78.6886 38.1022 78.3208 39.3881 78.1763C40.2278 78.0844 41.3562 78.6754 41.448 79.516C41.6054 80.8295 42.5895 84.8224 43.9278 84.8749C45.0824 84.9143 45.9221 80.8163 46.1321 79.5292C46.2764 78.6623 47.4572 78.0844 48.3232 78.1894C49.5697 78.3471 49.9895 78.7017 51.2885 79.2533C59.0165 82.051 63.6874 94.0559 64.8683 104.708C64.9076 105.089 65.4193 105.995 65.8786 106.783C66.2984 107.519 66.902 109.738 67.4399 112.457H75.3779C82.6074 108.189 90.7159 99.5198 90.7159 83.6271C90.7159 66.4735 85.1527 57.3713 72.0977 47.2578C74.4463 42.0959 77.5297 36.1329 77.5297 29.9072C77.5297 11.7816 65.8655 0 51.1048 0C43.6654 0 38.3122 3.37556 34.7696 8.1565V0.407168H0L1.06277 7.65739C1.60071 11.2825 1.86313 26.1244 1.86313 29.789ZM33.2607 41.61C34.4285 24.7979 56.0119 18.5853 62.3229 31.2206C64.9864 36.5532 63.2545 42.976 56.8778 48.9259C48.1658 57.043 44.492 68.7326 43.5735 76.2718C43.5735 76.2718 31.7912 62.9272 33.2607 41.61Z" fill="white"/>
<path d="M26.2412 111.301C33.8381 115.728 51.9839 116.332 58.6754 110.54C60.5516 108.123 64.2123 110.868 62.4016 113.35C61.6144 114.27 60.8665 114.703 59.9087 115.268C50.6324 119.918 33.8381 118.342 25.2834 112.589C24.4306 111.958 25.3753 110.658 26.2412 111.288V111.301Z" fill="white"/>
<path d="M190.433 112.457C190.144 109.778 190 107.072 190 104.366V34.478H157.093V45.3664C157.093 45.3664 157.08 46.3646 157.08 47.9802C158.838 49.2411 161.305 51.5002 163.417 55.2829C166.396 60.6418 162.919 66.815 159.245 64.1356C157.697 63.006 157.159 60.4579 157.29 57.4501C157.421 54.7444 156.804 51.9862 156.017 49.7008C155.702 48.8339 155.361 47.9539 154.954 47.0739C154.954 47.0476 154.928 47.0345 154.928 47.0082C152.015 40.7431 146.531 34.5699 136.231 34.5699C119.975 34.5699 103.102 44.0136 103.023 77.0993C102.984 92.0988 106.566 104.406 113.323 112.444H190.459L190.433 112.457ZM148.827 59.7093C153.498 59.7093 155.86 62.6645 157.054 65.5016C157.054 75.3655 157.067 86.4248 157.08 92.5848C155.886 95.3825 153.537 97.6416 148.748 97.6416C139.616 97.6416 134.526 89.7346 134.552 78.0056C134.578 63.7678 141.847 59.7093 148.84 59.7093H148.827Z" fill="white"/>
<path d="M211.097 62.4544V103.841C211.097 106.717 210.927 109.594 210.599 112.457H243.663L243.807 63.3738C243.938 60.8126 246.484 55.7558 256.692 55.7558C265.01 55.7558 265.732 56.9773 271.387 58.8949C273.276 59.5385 275.979 58.4615 275.979 56.0447V38.3001H245.906C244.647 38.6941 241.511 40.927 240.212 47.4285C239.622 50.3838 238.428 52.7086 236.643 53.4047C232.405 55.0728 230.595 48.2297 234.82 43.7903C238.546 39.8631 241.813 38.6416 243.886 38.287L243.991 2.31166H209.221L210.284 9.56189C210.822 13.187 211.084 24.2988 211.084 27.9764V38.1556H204.839V58.8949C211.084 58.8949 211.084 62.4675 211.084 62.4675L211.097 62.4544Z" fill="white"/>
<path d="M297.234 112.457H355.897C363.349 106.31 367.298 99.3753 368.02 97.3132C368.597 95.6846 367.403 93.9639 365.671 93.9639H339.378C339.286 95.6714 339.102 105.667 326.834 105.667C311.208 105.667 314.317 93.3466 314.317 84.7304H369.503C370.71 81.9328 371.484 76.8629 371.576 73.1064C372.1 51.4608 351.121 32.3502 326.743 32.3502C307.048 32.3502 281.109 45.7999 281.109 76.3769C281.109 92.8212 287.814 104.787 297.221 112.47L297.234 112.457ZM311.601 68.6276C312.323 57.3845 316.889 52.8793 320.825 51.0931C320.838 51.0931 320.851 51.0799 320.864 51.0668C324.027 49.6483 326.756 49.9766 326.756 49.9766C339.535 49.9766 339.535 61.4824 339.535 67.2222H314.068C313.989 68.4043 315.419 70.2037 317.151 71.6091C320.943 74.6825 320.943 79.516 317.046 79.9757C313.005 80.4617 311.168 75.1291 311.588 68.6276H311.601Z" fill="white"/>
<path d="M386.074 52.6823V104.629C386.074 107.243 385.93 109.857 385.667 112.444H419.007C419.007 106.284 418.994 99.3622 418.98 97.6547C418.98 97.6547 419.007 78.5441 419.007 63.492L419.046 63.0848C419.046 63.0848 422.208 60.169 427.22 60.0639C433.702 59.9194 442.296 64.2012 442.335 78.1632V112.444H473.916V77.3751C473.916 72.2001 473.405 67.4323 472.434 63.0717C472.473 63.0323 475.622 60.169 480.608 60.0639C487.09 59.9194 495.684 64.2012 495.723 78.1632V112.444H527.304V77.3751C527.265 62.3099 523.184 50.6859 515.141 42.8315C508.647 36.4744 499.58 32.9281 490.16 33.1514C489.504 33.1645 488.874 33.2039 488.244 33.2565C487.903 33.2827 487.575 33.3221 487.247 33.3615C487.116 33.3747 486.985 33.3878 486.853 33.4009C486.801 33.4009 486.735 33.4272 486.683 33.4272C476.475 34.7407 470.203 40.3753 469.915 40.6512C468.799 41.7545 466.411 44.3288 464.745 46.1545C463.814 44.9855 462.83 43.8691 461.767 42.8315C455.272 36.4744 446.206 32.9806 436.785 33.1514C430.094 33.2959 424.793 35.4368 421.29 37.3938C421.421 37.3413 421.5 37.315 421.5 37.315C420.174 39.758 418.547 43.961 418.626 48.0721C418.679 51.0799 418.062 53.6149 416.488 54.6919C412.735 57.2663 409.429 50.988 412.564 45.7211C414.742 42.0697 417.209 39.8894 419.007 38.681V34.4648H405.624C397.397 34.4648 384.25 34.4648 384.25 34.4648L385.313 41.7151C385.851 45.3402 386.113 49.0178 386.113 52.6823H386.074Z" fill="white"/>
<path d="M627.979 112.457C627.69 109.778 627.546 107.072 627.546 104.366V34.478H594.639V45.3664C594.639 45.3664 594.626 46.3646 594.626 47.9802C596.384 49.2411 598.851 51.5002 600.963 55.2829C603.942 60.6418 600.465 66.815 596.791 64.1356C595.243 63.006 594.705 60.4579 594.836 57.4501C594.967 54.7444 594.35 51.9862 593.563 49.7008C593.248 48.8339 592.907 47.9539 592.5 47.0739C592.5 47.0476 592.474 47.0214 592.461 47.0082C589.548 40.7431 584.064 34.5699 573.764 34.5699C557.508 34.5699 540.635 44.0136 540.556 77.0993C540.517 92.0988 544.098 104.406 550.856 112.444H627.992L627.979 112.457ZM586.386 59.7093C591.057 59.7093 593.419 62.6645 594.613 65.5016C594.613 75.3655 594.626 86.4248 594.639 92.5848C593.445 95.3825 591.097 97.6416 586.307 97.6416C577.176 97.6416 572.085 89.7346 572.111 78.0056C572.137 63.7678 579.406 59.7093 586.399 59.7093H586.386Z" fill="white"/>
<path d="M647.922 62.4544V103.841C647.922 106.717 647.751 109.594 647.423 112.457H680.487L680.632 63.3738C680.763 60.8126 683.308 55.7558 693.516 55.7558C701.835 55.7558 702.556 56.9773 708.211 58.8949C710.101 59.5385 712.803 58.4615 712.803 56.0447V38.3001H682.731C681.471 38.6941 678.336 40.927 677.037 47.4285C676.446 50.3838 675.252 52.7086 673.468 53.4047C669.23 55.0728 667.419 48.2297 671.644 43.7903C675.37 39.8631 678.637 38.6416 680.71 38.287L680.815 2.31166H646.046L647.108 9.56189C647.646 13.187 647.909 24.2988 647.909 27.9764V38.1556H641.663V58.8949C647.909 58.8949 647.909 62.4675 647.909 62.4675L647.922 62.4544Z" fill="white"/>
<path d="M733.836 112.457H792.498C799.95 106.31 803.9 99.3753 804.621 97.3132C805.199 95.6846 804.005 93.9639 802.273 93.9639H775.979C775.887 95.6714 775.704 105.667 763.436 105.667C747.809 105.667 750.919 93.3466 750.919 84.7304H806.104C807.311 81.9328 808.085 76.8629 808.177 73.1064C808.702 51.4608 787.722 32.3502 763.344 32.3502C743.65 32.3502 717.71 45.7999 717.71 76.3769C717.71 92.8212 724.415 104.787 733.823 112.47L733.836 112.457ZM748.216 68.6276C748.938 57.3845 753.503 52.8793 757.44 51.0931C757.453 51.0931 757.466 51.0799 757.479 51.0668C760.641 49.6483 763.37 49.9766 763.37 49.9766C776.15 49.9766 776.15 61.4824 776.15 67.2222H750.683C750.604 68.4043 752.034 70.2037 753.766 71.6091C757.558 74.6825 757.558 79.516 753.661 79.9757C749.62 80.4617 747.783 75.1291 748.203 68.6276H748.216Z" fill="white"/>
<path d="M819.92 91.9412C818.188 91.9412 817.571 93.5568 817.571 95.2905C817.571 99.6249 820.681 106.796 827.477 112.457H879.737C885.352 107.913 889.013 101.569 889.013 93.4517C889.013 78.0975 879.356 76.285 865.435 69.1398C858.56 65.7511 846.056 62.9929 846.056 56.163C846.056 54.3635 845.899 48.9127 853.719 48.9127C861.539 48.9127 860.318 60.6287 860.318 60.6287H886.651C888.383 60.6287 889 59.0131 889 57.2794C889 49.2805 878.438 31.6146 853.627 31.6146C835.94 31.6146 817.571 40.9138 817.571 59.1182C817.571 74.4724 826.336 77.6115 840.782 84.7041C847.657 88.0928 860.528 89.5902 860.528 96.407C860.528 98.2064 860.686 103.657 852.866 103.657C845.046 103.657 846.266 91.9412 846.266 91.9412H819.933H819.92Z" fill="white"/>
</g>
<defs>
<clipPath id="clip0_5_7269">
<rect width="889" height="118" fill="white"/>
</clipPath>
</defs>
</svg>
